<svg width="1024" height="1024" viewBox="0 0 1024 1024" fill="none" xmlns="http://www.w3.org/2000/svg">
<path d="M579.5 185.6C579.5 140.534 616.034 104 661.1 104H837.9C882.966 104 919.5 140.534 919.5 185.6V362.4C919.5 407.466 882.966 444 837.9 444H661.1C616.034 444 579.5 407.466 579.5 362.4V185.6Z" fill="#5767C0"/>
<path d="M579.5 661.6C579.5 616.534 616.034 580 661.1 580H837.9C882.966 580 919.5 616.534 919.5 661.6V838.4C919.5 883.466 882.966 920 837.9 920H661.1C616.034 920 579.5 883.466 579.5 838.4V661.6Z" fill="#5767C0"/>
<path d="M402.7 716V573.2H144.95C122.417 573.2 104.15 554.933 104.15 532.4C104.15 509.866 122.417 491.6 144.95 491.6H402.7V348.8C402.7 296.222 445.322 253.6 497.9 253.6H579.5C602.033 253.6 620.3 271.866 620.3 294.4C620.3 316.933 602.033 335.2 579.5 335.2H497.9C490.389 335.2 484.3 341.289 484.3 348.8V716C484.3 723.511 490.389 729.6 497.9 729.6H579.5C602.033 729.6 620.3 747.866 620.3 770.4C620.3 792.933 602.033 811.2 579.5 811.2H497.9C445.322 811.2 402.7 768.577 402.7 716Z" fill="#5767C0"/>
</svg>
